<svg version="1.1" xmlns="http://www.w3.org/2000/svg" xmlns:xlink="http://www.w3.org/1999/xlink" width="180" height="183" viewBox="0,0,180,183"><g transform="translate(-140.69443,-83.65623)"><g data-paper-data="{&quot;isPaintingLayer&quot;:true}" fill-rule="nonzero" stroke-linecap="butt" stroke-linejoin="miter" stroke-miterlimit="10" stroke-dasharray="" stroke-dashoffset="0" style="mix-blend-mode: normal"><path d="M319.69443,175.15623c0,49.98177 -39.84666,90.5 -89,90.5c-49.15334,0 -89,-40.51823 -89,-90.5c0,-49.98177 39.84666,-90.5 89,-90.5c49.15334,0 89,40.51823 89,90.5z" fill="#26730b" stroke="#000000" stroke-width="2"/><path d="" fill="#667bff" stroke="none" stroke-width="0.5"/><path d="M204.28183,117.3981c0,-1.38071 1.11929,-2.5 2.5,-2.5c1.38071,0 2.5,1.11929 2.5,2.5c0,1.38071 -1.11929,2.5 -2.5,2.5c-1.38071,0 -2.5,-1.11929 -2.5,-2.5z" fill="#667bff" stroke="none" stroke-width="0.5"/><path d="M257.25744,132.84932c0,-1.38071 1.11929,-2.5 2.5,-2.5c1.38071,0 2.5,1.11929 2.5,2.5c0,1.38071 -1.11929,2.5 -2.5,2.5c-1.38071,0 -2.5,-1.11929 -2.5,-2.5z" fill="#667bff" stroke="none" stroke-width="0.5"/><path d="M287.03581,151.81501c2.37171,0.79057 1.58114,3.16228 1.58114,3.16228l-0.68212,2.02309c-1.79591,6.87316 -8.25044,10.96159 -13.16572,15.87688c-2.33254,2.33254 -5.07284,4.63567 -7.19214,7.17493c-1.83306,2.1963 -3.33128,4.91696 -5.04291,7.21668c-0.69438,0.93296 -1.08361,2.19445 -2.07227,2.80692c-4.99146,3.0922 -10.49153,-0.2597 -13.67429,-4.13743c-0.94735,-1.15421 -1.51796,-2.56157 -2.00615,-3.99788c-0.55512,0.68021 -1.18482,1.31994 -1.70018,2.02173c-2.83968,1.94136 -4.99002,2.86059 -8.06438,4.14901c-1.57877,0.66164 -2.9924,2.76129 -4.70156,3.04953c-1.71681,0.28953 -3.71937,0.48387 -5.20608,-0.42222c-1.06898,-0.65149 -0.55463,-2.51041 -1.27995,-3.53074c-1.26731,-1.78275 -3.60884,-2.47718 -5.33453,-3.82117c-3.61037,-2.81181 -7.07818,-6.57852 -11.26173,-8.52333c-1.33231,-0.61936 -4.67175,-0.63194 -6.03184,-0.53677c-1.43824,0.10064 -3.05701,1.26775 -4.29319,0.52579c-4.33249,-2.60038 -2.66784,-6.46255 -2.15712,-10.04c0,0 0.411,-2.46598 2.87698,-2.05499c2.46598,0.411 2.05499,2.87698 2.05499,2.87698c-0.24318,1.21063 -0.5504,2.41015 -0.72955,3.6319c-0.05051,0.34447 -0.30356,1.02279 0.04398,1.04355c0.61643,0.03682 0.98356,-0.8461 1.59299,-0.94576c2.18329,-0.35703 6.68562,0.07626 8.68361,0.93478c4.59254,1.97337 8.38859,6.11049 12.28299,9.13521c0.83472,0.64831 6.03874,4.45199 6.43783,5.00809c0.45929,0.63999 -0.1322,1.63733 0.19159,2.35544c0.10968,0.24325 0.46259,-0.26766 0.6801,-0.42222c0.52479,-0.37291 1.01444,-0.79431 1.54503,-1.15894c0.84606,-0.58143 1.64191,-1.26681 2.58268,-1.6777c2.57751,-1.12577 4.24044,-1.65705 6.65107,-3.20871c1.71519,-2.20179 2.31594,-4.70501 2.29531,-7.32421c-1.2853,-4.30523 -2.47588,-8.63853 -3.71685,-12.9818c0,0 -0.31477,-1.10169 0.22771,-2.02651l-0.98503,-3.94013c0,0 -0.60634,-2.42536 1.81902,-3.0317c2.42536,-0.60634 3.0317,1.81902 3.0317,1.81902l0.99464,3.97856c1.24119,4.96766 3.26642,10.18525 3.627,15.40904c0.62448,2.07401 1.27085,4.14174 1.95369,6.2016c0.49077,1.48045 0.75009,3.1477 1.76194,4.33461c1.14231,1.33992 4.73293,4.96472 6.92734,3.2203c0.47709,-0.37926 0.52935,-1.10288 0.87082,-1.60771c1.2313,-1.82039 2.57003,-3.93781 3.957,-5.82594c-0.00101,-0.02916 -0.00151,-0.05845 -0.00151,-0.08785c0,-1.23093 0.88961,-2.25408 2.06098,-2.46158c2.08809,-2.32766 4.58595,-4.48511 6.76475,-6.66391c2.47184,-2.47184 4.83231,-5.20703 7.48749,-7.47859c2.97844,-2.54812 3.47961,-2.31773 4.36305,-6.07543l0.78942,-2.39155c0,0 0.79057,-2.37171 3.16228,-1.58114z" fill="#667bff" stroke="none" stroke-width="0.5"/></g></g></svg>