<svg version="1.1" xmlns="http://www.w3.org/2000/svg" xmlns:xlink="http://www.w3.org/1999/xlink" width="180" height="183" viewBox="0,0,180,183"><g transform="translate(-140.69443,-83.65623)"><g data-paper-data="{&quot;isPaintingLayer&quot;:true}" fill-rule="nonzero" stroke-linecap="butt" stroke-linejoin="miter" stroke-miterlimit="10" stroke-dasharray="" stroke-dashoffset="0" style="mix-blend-mode: normal"><path d="M319.69443,175.15623c0,49.98177 -39.84666,90.5 -89,90.5c-49.15334,0 -89,-40.51823 -89,-90.5c0,-49.98177 39.84666,-90.5 89,-90.5c49.15334,0 89,40.51823 89,90.5z" fill="#ffa000" stroke="#000000" stroke-width="2"/><path d="M189.19443,147.65623c0,-1.38071 1.11929,-2.5 2.5,-2.5c1.38071,0 2.5,1.11929 2.5,2.5c0,1.38071 -1.11929,2.5 -2.5,2.5c-1.38071,0 -2.5,-1.11929 -2.5,-2.5z" fill="#000000" stroke="none" stroke-width="0.5"/><path d="M264.19443,147.65623c0,-1.38071 1.11929,-2.5 2.5,-2.5c1.38071,0 2.5,1.11929 2.5,2.5c0,1.38071 -1.11929,2.5 -2.5,2.5c-1.38071,0 -2.5,-1.11929 -2.5,-2.5z" fill="#000000" stroke="none" stroke-width="0.5"/><path d="M272.69443,179.15623c2.5,0 2.5,2.5 2.5,2.5v1c0,6.20894 0.98778,13.26126 -0.03228,19.40046c-0.43799,2.63602 -1.98111,7.63072 -3.34109,9.91387c-1.35865,2.28093 -3.5455,3.96717 -5.08578,6.1296c-3.88549,5.45493 -7.43202,10.32858 -14.46647,11.98919c-0.33412,0.07887 -7.0742,0.06688 -8.57438,0.06688c-8.33079,0 -18.7361,1.09032 -26.31433,-3.37337c-0.90672,-0.53407 -1.44716,-1.53811 -2.27064,-2.19327c-4.38709,-3.49033 -8.47929,-6.71383 -11.54165,-11.61903c-0.71474,-1.14484 -0.88346,-2.61396 -1.74291,-3.65456c-0.66074,-0.80001 -1.84516,-0.98266 -2.63893,-1.6509c-0.545,-0.45881 -6.49143,-6.52901 -7.15884,-7.14605c-3.07059,-2.83886 -6.63021,-5.29927 -9.89443,-7.91065c0,0 -1.95217,-1.56174 -0.39043,-3.51391c1.56174,-1.95217 3.51391,-0.39043 3.51391,-0.39043c3.33795,2.67036 6.96216,5.18961 10.10557,8.08935c2.42187,2.23414 4.47106,4.86406 6.9833,6.99609c0.9919,0.84178 2.38468,1.20873 3.21894,2.20697c1.04669,1.25243 1.39133,2.96175 2.25709,4.34544c2.77822,4.44029 6.51741,7.20885 10.45835,10.38097c0.64942,0.52273 1.01947,1.36964 1.72936,1.80673c1.85008,1.13913 4.18537,1.16979 6.29201,1.70127c5.70517,1.43935 11.51982,0.92536 17.39366,0.92536c2.47531,0 5.01653,0.63559 7.42562,0.06688c5.80128,-1.3695 8.35438,-5.57173 11.53353,-10.01081c1.48587,-2.07474 3.59147,-3.68804 4.91422,-5.8704c1.13396,-1.87087 2.29704,-5.92358 2.65891,-8.08613c0.9795,-5.85362 -0.03228,-12.66617 -0.03228,-18.59954v-1c0,0 0,-2.5 2.5,-2.5z" fill="#000000" stroke="none" stroke-width="0.5"/></g></g></svg>